<?xml version="1.0" encoding="UTF-8" standalone="no"?>
<!-- Created with Inkscape (http://www.inkscape.org/) -->

<svg
   width="210mm"
   height="297mm"
   viewBox="0 0 210 297"
   version="1.1"
   id="svg1520878"
   inkscape:version="1.1.1 (3bf5ae0d25, 2021-09-20)"
   sodipodi:docname="Mascote_favicon_1.svg"
   xmlns:inkscape="http://www.inkscape.org/namespaces/inkscape"
   xmlns:sodipodi="http://sodipodi.sourceforge.net/DTD/sodipodi-0.dtd"
   xmlns:xlink="http://www.w3.org/1999/xlink"
   xmlns="http://www.w3.org/2000/svg"
   xmlns:svg="http://www.w3.org/2000/svg">
  <sodipodi:namedview
     id="namedview1520880"
     pagecolor="#ffffff"
     bordercolor="#cccccc"
     borderopacity="1"
     inkscape:pageshadow="0"
     inkscape:pageopacity="1"
     inkscape:pagecheckerboard="0"
     inkscape:document-units="mm"
     showgrid="false"
     inkscape:zoom="1.4467452"
     inkscape:cx="432.00419"
     inkscape:cy="538.10442"
     inkscape:window-width="1920"
     inkscape:window-height="1001"
     inkscape:window-x="-9"
     inkscape:window-y="-9"
     inkscape:window-maximized="1"
     inkscape:current-layer="layer1" />
  <defs
     id="defs1520875">
    <filter
       inkscape:collect="always"
       style="color-interpolation-filters:sRGB"
       id="filter46504"
       x="-0.025311246"
       y="-0.031643842"
       width="1.0506225"
       height="1.0632877">
      <feGaussianBlur
         inkscape:collect="always"
         stdDeviation="0.34369261"
         id="feGaussianBlur46506" />
    </filter>
    <filter
       inkscape:collect="always"
       style="color-interpolation-filters:sRGB"
       id="filter53329"
       x="-0.060427975"
       y="-0.17502376"
       width="1.120856"
       height="1.3500475">
      <feGaussianBlur
         inkscape:collect="always"
         stdDeviation="0.5691665"
         id="feGaussianBlur53331" />
    </filter>
    <linearGradient
       inkscape:collect="always"
       xlink:href="#linearGradient8239"
       id="linearGradient1250605"
       gradientUnits="userSpaceOnUse"
       gradientTransform="translate(13.30523,-10.220483)"
       x1="86.156502"
       y1="151.21336"
       x2="83.823624"
       y2="141.62508" />
    <linearGradient
       inkscape:collect="always"
       id="linearGradient8239">
      <stop
         style="stop-color:#000000;stop-opacity:1;"
         offset="0"
         id="stop8235" />
      <stop
         style="stop-color:#000000;stop-opacity:0;"
         offset="1"
         id="stop8237" />
    </linearGradient>
    <linearGradient
       inkscape:collect="always"
       xlink:href="#linearGradient8239"
       id="linearGradient1250607"
       gradientUnits="userSpaceOnUse"
       x1="85.471214"
       y1="137.04071"
       x2="85.200043"
       y2="140.59036" />
    <filter
       inkscape:collect="always"
       style="color-interpolation-filters:sRGB"
       id="filter148370"
       x="-0.14037284"
       y="-0.14037284"
       width="1.2807457"
       height="1.2807457">
      <feGaussianBlur
         inkscape:collect="always"
         stdDeviation="0.046790948"
         id="feGaussianBlur148372" />
    </filter>
    <filter
       inkscape:collect="always"
       style="color-interpolation-filters:sRGB"
       id="filter148374"
       x="-0.12228034"
       y="-0.12228034"
       width="1.2445607"
       height="1.2445607">
      <feGaussianBlur
         inkscape:collect="always"
         stdDeviation="0.020380057"
         id="feGaussianBlur148376" />
    </filter>
    <filter
       inkscape:collect="always"
       style="color-interpolation-filters:sRGB"
       id="filter46307"
       x="-0.22487689"
       y="-0.20853996"
       width="1.4497538"
       height="1.4170799">
      <feGaussianBlur
         inkscape:collect="always"
         stdDeviation="0.28948156"
         id="feGaussianBlur46309" />
    </filter>
    <filter
       inkscape:collect="always"
       style="color-interpolation-filters:sRGB"
       id="filter37294"
       x="-0.062422942"
       y="-0.070020672"
       width="1.1248459"
       height="1.1400413">
      <feGaussianBlur
         inkscape:collect="always"
         stdDeviation="0.12334828"
         id="feGaussianBlur37296" />
    </filter>
    <filter
       inkscape:collect="always"
       style="color-interpolation-filters:sRGB"
       id="filter78537"
       x="-0.03280371"
       y="-0.085247547"
       width="1.0656074"
       height="1.1704951">
      <feGaussianBlur
         inkscape:collect="always"
         stdDeviation="0.39746383"
         id="feGaussianBlur78539" />
    </filter>
    <filter
       inkscape:collect="always"
       style="color-interpolation-filters:sRGB"
       id="filter17752"
       x="-0.1995454"
       y="-0.20479659"
       width="1.3990908"
       height="1.4095932">
      <feGaussianBlur
         inkscape:collect="always"
         stdDeviation="0.60665607"
         id="feGaussianBlur17754" />
    </filter>
    <filter
       inkscape:collect="always"
       style="color-interpolation-filters:sRGB"
       id="filter18742"
       x="-0.12420856"
       y="-0.59237924"
       width="1.2484171"
       height="2.1847585">
      <feGaussianBlur
         inkscape:collect="always"
         stdDeviation="0.30015766"
         id="feGaussianBlur18744" />
    </filter>
    <filter
       inkscape:collect="always"
       style="color-interpolation-filters:sRGB"
       id="filter21047"
       x="-0.13151086"
       y="-0.25832489"
       width="1.2630217"
       height="1.5166498">
      <feGaussianBlur
         inkscape:collect="always"
         stdDeviation="0.28192304"
         id="feGaussianBlur21049" />
    </filter>
    <filter
       inkscape:collect="always"
       style="color-interpolation-filters:sRGB"
       id="filter29987"
       x="-0.10856958"
       y="-0.079803835"
       width="1.2171392"
       height="1.1596077">
      <feGaussianBlur
         inkscape:collect="always"
         stdDeviation="0.37908834"
         id="feGaussianBlur29989" />
    </filter>
    <filter
       inkscape:collect="always"
       style="color-interpolation-filters:sRGB"
       id="filter32418"
       x="-0.085694523"
       y="-0.061514665"
       width="1.171389"
       height="1.1230293">
      <feGaussianBlur
         inkscape:collect="always"
         stdDeviation="0.17001532"
         id="feGaussianBlur32420" />
    </filter>
    <filter
       inkscape:collect="always"
       style="color-interpolation-filters:sRGB"
       id="filter34904"
       x="-0.19383222"
       y="-0.31151606"
       width="1.3876644"
       height="1.6230321">
      <feGaussianBlur
         inkscape:collect="always"
         stdDeviation="0.12019869"
         id="feGaussianBlur34906" />
    </filter>
    <filter
       inkscape:collect="always"
       style="color-interpolation-filters:sRGB"
       id="filter39794"
       x="-0.047646001"
       y="-0.061762804"
       width="1.095292"
       height="1.1235256">
      <feGaussianBlur
         inkscape:collect="always"
         stdDeviation="0.10943291"
         id="feGaussianBlur39796" />
    </filter>
    <filter
       inkscape:collect="always"
       style="color-interpolation-filters:sRGB"
       id="filter43469"
       x="-0.038274834"
       y="-0.025447474"
       width="1.0765497"
       height="1.0508949">
      <feGaussianBlur
         inkscape:collect="always"
         stdDeviation="0.044775864"
         id="feGaussianBlur43471" />
    </filter>
    <filter
       inkscape:collect="always"
       style="color-interpolation-filters:sRGB"
       id="filter46084"
       x="-0.10084713"
       y="-0.11046159"
       width="1.2016943"
       height="1.2209232">
      <feGaussianBlur
         inkscape:collect="always"
         stdDeviation="0.21540527"
         id="feGaussianBlur46086" />
    </filter>
    <filter
       inkscape:collect="always"
       style="color-interpolation-filters:sRGB"
       id="filter49819"
       x="-0.1570914"
       y="-0.11070601"
       width="1.3141828"
       height="1.221412">
      <feGaussianBlur
         inkscape:collect="always"
         stdDeviation="0.056528134"
         id="feGaussianBlur49821" />
    </filter>
    <filter
       inkscape:collect="always"
       style="color-interpolation-filters:sRGB"
       id="filter55256"
       x="-0.72547122"
       y="-0.099043142"
       width="2.4509424"
       height="1.1980863">
      <feGaussianBlur
         inkscape:collect="always"
         stdDeviation="0.45858784"
         id="feGaussianBlur55258" />
    </filter>
    <filter
       inkscape:collect="always"
       style="color-interpolation-filters:sRGB"
       id="filter57244"
       x="-0.33131859"
       y="-0.32875568"
       width="1.6626372"
       height="1.6575114">
      <feGaussianBlur
         inkscape:collect="always"
         stdDeviation="0.91722003"
         id="feGaussianBlur57246" />
    </filter>
    <filter
       inkscape:collect="always"
       style="color-interpolation-filters:sRGB"
       id="filter60384"
       x="-0.14752994"
       y="-0.13885172"
       width="1.2950599"
       height="1.2777034">
      <feGaussianBlur
         inkscape:collect="always"
         stdDeviation="0.092003935"
         id="feGaussianBlur60386" />
    </filter>
    <filter
       inkscape:collect="always"
       style="color-interpolation-filters:sRGB"
       id="filter87877"
       x="-0.59404782"
       y="-0.59404782"
       width="2.1880956"
       height="2.1880956">
      <feGaussianBlur
         inkscape:collect="always"
         stdDeviation="0.099007972"
         id="feGaussianBlur87879" />
    </filter>
    <filter
       inkscape:collect="always"
       style="color-interpolation-filters:sRGB"
       id="filter94842"
       x="-0.13513052"
       y="-0.080445483"
       width="1.270261"
       height="1.160891">
      <feGaussianBlur
         inkscape:collect="always"
         stdDeviation="0.24522136"
         id="feGaussianBlur94844" />
    </filter>
    <filter
       inkscape:collect="always"
       style="color-interpolation-filters:sRGB"
       id="filter107849"
       x="-0.23602723"
       y="-0.13087657"
       width="1.4720545"
       height="1.2617531">
      <feGaussianBlur
         inkscape:collect="always"
         stdDeviation="0.076514206"
         id="feGaussianBlur107851" />
    </filter>
    <inkscape:path-effect
       effect="skeletal"
       id="path-effect1250603"
       is_visible="true"
       lpeversion="1"
       pattern="m 13.30523,-5.228345 c 0,-2.75566 2.23648,-4.992138 4.99214,-4.992138 2.75566,0 4.99214,2.236478 4.99214,4.992138 0,2.75566 -2.23648,4.992138 -4.99214,4.992138 -2.75566,0 -4.99214,-2.236478 -4.99214,-4.992138 z"
       copytype="single_stretched"
       prop_scale="0.025"
       scale_y_rel="false"
       spacing="0"
       normal_offset="0"
       tang_offset="0"
       prop_units="false"
       vertical_pattern="false"
       hide_knot="false"
       fuse_tolerance="0" />
    <filter
       inkscape:collect="always"
       style="color-interpolation-filters:sRGB"
       id="filter194471"
       x="-0.14894429"
       y="-0.19186044"
       width="1.2978886"
       height="1.3837209">
      <feGaussianBlur
         inkscape:collect="always"
         stdDeviation="0.44120831"
         id="feGaussianBlur194473" />
    </filter>
  </defs>
  <g
     inkscape:label="Calque 1"
     inkscape:groupmode="layer"
     id="layer1">
    <path
       style="fill:#ac9393;stroke:none;stroke-width:0.123782px;stroke-linecap:butt;stroke-linejoin:miter;stroke-opacity:1"
       d="m 82.61942,123.26384 c 4.49632,-1.923 7.64736,-0.91578 6.96045,-2.45167 -0.68665,-0.32786 -6.20007,1.80186 -6.96045,2.45167 z"
       id="path1250411"
       sodipodi:nodetypes="ccc" />
    <path
       style="fill:#ac9393;stroke:none;stroke-width:0.123782px;stroke-linecap:butt;stroke-linejoin:miter;stroke-opacity:1"
       d="m 81.88869,121.80217 c 4.89017,0.0322 7.37698,2.21378 7.36045,0.53136 -0.49864,-0.57474 -6.40385,-0.82352 -7.36045,-0.53136 z"
       id="path1250413"
       sodipodi:nodetypes="ccc" />
    <path
       style="fill:#ac9393;stroke:none;stroke-width:0.0350345px;stroke-linecap:butt;stroke-linejoin:miter;stroke-opacity:1"
       d="m 83.66973,118.77913 c -1.56513,2.12652 1.92996,2.9759 2.70348,3.12905 1.81725,0.57579 1.50714,-0.0437 1.56082,-0.33488 -0.79228,-2.29678 -4.63661,0.35439 -4.2643,-2.79417 z"
       id="path1250415"
       sodipodi:nodetypes="cccc" />
    <path
       style="fill:#999999;stroke:none;stroke-width:0.264583px;stroke-linecap:butt;stroke-linejoin:miter;stroke-opacity:1"
       d="m 99.12945,112.67847 c 0.2182,-2.8435 1.37547,-4.72302 3.20807,-5.40743 1.73879,-0.66784 4.09739,1.01239 4.20026,2.62925 -2.19296,1.07343 -2.96747,0.60682 -4.63021,3.60495 -1.00793,0.0684 -2.94239,0.32234 -2.77813,-0.82691 z"
       id="path1250417"
       sodipodi:nodetypes="cccccc" />
    <path
       style="fill:#e3dbdb;stroke:none;stroke-width:0.264583px;stroke-linecap:butt;stroke-linejoin:miter;stroke-opacity:1;filter:url(#filter46504)"
       d="m 83.01916,126.50616 c -0.63014,0.78669 -0.96481,2.01024 -1.16344,2.66604 -0.38543,1.11386 -0.44656,2.39586 -0.4385,3.61315 -0.27428,0.94144 0.61016,3.32484 1.029,4.43166 0.72357,1.42524 2.97517,4.83817 3.35004,5.17399 2.54619,2.4396 4.11504,2.91663 4.97539,3.25065 0.31168,0.0623 1.44959,-0.82335 1.76565,-0.76589 0.0363,0.007 0.33529,0.0182 0.42095,0.0468 0.48762,0.16254 1.03275,0.28905 1.54348,0.37417 0.12398,0.0207 0.25493,0.007 0.37418,0.0468 0.16343,0.0545 0.30031,0.11241 0.46772,0.14031 0.31039,0.0517 0.66577,0 0.98221,0 0.39829,0 0.81871,0.0361 1.21608,0 0.16066,0.0585 0.27832,-0.0757 0.42095,-0.0935 0.19909,-0.0249 0.40944,0.0284 0.60804,0 0.27662,-0.0395 0.7056,-0.18843 0.98221,-0.28064 0.16309,-0.0544 0.3413,-0.15822 0.5145,-0.18708 0.31992,-0.0533 -0.0695,0.13229 0.46772,-0.0468 0.0862,-0.0287 0.15079,-0.10339 0.23386,-0.14031 0.15789,-0.0702 0.35008,-0.0442 0.51449,-0.0935 0.0804,-0.0241 0.15126,-0.0785 0.23386,-0.0935 0.19325,-0.0351 0.41291,-0.008 0.60804,-0.0468 0.0967,-0.0193 0.18394,-0.0742 0.28063,-0.0935 0.27915,-0.0558 0.56515,-0.0612 0.8419,-0.14031 0.60991,-0.17426 -0.37532,0.10566 0.28064,-0.14032 0.14887,-0.0558 0.31688,-0.0433 0.46772,-0.0935 0.13513,-0.0451 0.30106,-0.17392 0.42095,-0.23386 0.0882,-0.0441 0.19502,-0.0446 0.28063,-0.0935 0.11645,-0.0665 0.21096,-0.16732 0.32741,-0.23386 0.52125,-0.29786 -0.26522,0.19143 0.51449,-0.23386 0.33901,-0.18492 0.048,-0.081 0.32741,-0.28063 0.18705,-0.13361 0.43309,-0.22111 0.60803,-0.37418 0.0587,-0.0513 0.0821,-0.1353 0.14032,-0.18709 0.59409,-0.52808 0.0545,-0.014 0.42095,-0.23386 0.22915,-0.1375 0.48992,-0.35168 0.70158,-0.51449 0.2517,-0.0168 0.31432,-0.33624 0.46772,-0.46773 0.0529,-0.0454 0.13415,-0.0482 0.18709,-0.0935 0.0592,-0.0507 0.0852,-0.13197 0.14032,-0.18709 0.0706,-0.0706 0.15591,-0.12472 0.23386,-0.18709 0.0935,-0.078 0.19453,-0.14776 0.28063,-0.23386 1.11753,-1.93278 2.52268,-2.63879 3.41437,-3.78851 0.1517,-0.26548 0.2469,-0.5619 0.37417,-0.8419 0.0849,-0.18683 0.20086,-0.37512 0.28064,-0.56127 0.11418,-0.26644 0.14724,-0.56297 0.18708,-0.8419 0.22021,-0.93635 0.50636,-1.99475 0.56134,-2.8531 0.11756,-1.5262 0.22448,-3.3995 -0.42095,-4.63044 -0.4085,-0.54766 -0.72413,-1.10169 -1.02898,-1.63694 -0.61924,-1.3358 -1.53911,-3.02583 -2.83843,-3.62079 -1.23892,-0.51506 -3.15207,-1.81113 -4.41125,-1.97438 -3.85358,-0.54183 -5.74533,0.56339 -8.44238,0.18719 -2.13379,-0.42188 -4.98039,-0.1708 -6.09792,-0.006 -3.59425,0.24017 -6.15752,4.21819 -7.6064,6.59449 z"
       id="path1250419"
       sodipodi:nodetypes="ccccccccccsscccsscssscccscsssssssscscscccssccccccccc" />
    <path
       style="opacity:0.938111;fill:#ac9393;stroke:none;stroke-width:0.264583px;stroke-linecap:butt;stroke-linejoin:miter;stroke-opacity:1;filter:url(#filter53329)"
       d="m 90.62556,119.91144 c -0.009,3.43688 0.61049,1.26459 5.70027,1.29786 6.06603,0.27365 8.8751,0.7632 12.95701,2.58167 1.30962,0.88864 3.1327,1.53445 3.1327,1.53445 2.36296,1.2112 -1.11556,-2.96211 -1.57827,-4.47826 l -2.03986,-0.32156 -3.16392,-2.02909 -3.38685,-0.1838 -2.05884,-0.57442 c 0,0 -3.90874,0.47759 -4.61032,0.47759 -0.70159,0 -3.6865,0.49924 -3.6865,0.49924 z"
       id="path1250421"
       sodipodi:nodetypes="cccccccccscc" />
    <path
       style="color:#000000;fill:#000000;-inkscape-stroke:none"
       d="m 102.24664,118.31271 c -4.08723,0.37211 -5.51127,0.36229 -10.35565,0.40241 -3.97391,0.51091 -7.28496,3.45523 -8.96076,6.73042 -1.6758,3.27518 -2.01394,7.0091 -1.6944,10.46002 2.95141,8.32074 9.00093,12.1061 19.04687,11.80079 2.48769,-0.37314 4.48753,-0.95761 6.68464,-2.16121 4.91783,-2.694 7.46604,-6.33394 8.63672,-11.8125 0.69668,-3.26033 0.33313,-6.30828 -1.30664,-9.25976 -0.89225,-1.60598 -3.03529,-3.07349 -5.38672,-4.18555 -2.35143,-1.11205 -4.91107,-1.86192 -6.66406,-1.97461 z m 6.55078,2.21289 c 2.32563,1.09986 4.43036,2.56925 5.26758,4.07618 1.61042,2.89865 1.96505,5.865 1.27929,9.07421 -1.15938,5.42573 -3.63999,8.97225 -8.5039,11.63672 -17.69909,7.96114 -30.83651,-8.31756 -23.67383,-19.74609 1.64767,-3.22021 4.33007,-5.70052 8.20898,-6.19922 0.967,-0.12664 3.69113,-0.19559 4.28636,-0.0513 5.91118,-0.39544 7.84879,-1.2511 13.13552,1.20951 z"
       id="path1250423"
       sodipodi:nodetypes="ccscccssssccsscccccc" />
    <path
       style="opacity:0.521173;fill:none;stroke:#000000;stroke-width:0.264583px;stroke-linecap:butt;stroke-linejoin:miter;stroke-opacity:1"
       d="m 90.0936,132.78308 c 0,0 0.42471,1.72741 -0.11744,2.60086 -0.6387,1.02902 -1.7935,1.23642 -1.7935,0.63176"
       id="path1250425"
       sodipodi:nodetypes="csc" />
    <path
       style="fill:url(#linearGradient1250605);fill-opacity:1;stroke:none;stroke-width:0.264583px;stroke-linecap:butt;stroke-linejoin:miter;stroke-opacity:1"
       d="m 90.19282,134.46979 c 1.01371,6.1815 10.6896,2.00883 11.73446,-2.59857 0.089,-0.16021 0.23099,-0.6822 0.23099,-0.49893 0.34855,5.1676 -3.49119,9.05692 -8.48738,8.46189 -3.44662,-0.8458 -3.93922,-3.36033 -4.12486,-4.13787"
       id="path1250427"
       sodipodi:nodetypes="ccccc" />
    <path
       style="color:#000000;opacity:0.563518;fill:#000000;-inkscape-stroke:none"
       d="m 88.60016,129.57443 -0.0928,0.20417 c 0.23005,0.23532 1.96843,-1.39438 2.52822,-0.26294 0.47916,0.26321 0.48869,0.84972 0.75406,0.76342 0.10856,-0.28503 -0.0436,-1.19001 -0.85162,-1.63036 -0.6441,-0.48479 -1.8566,0.0792 -2.32036,0.93493 0,0 -0.0117,-0.007 -0.0176,-0.01 z m 2.97851,0.66992 c 0.004,0.005 0.0119,0.0117 0.0137,0.0137 -0.014,0.047 -0.008,-0.008 -0.0137,-0.0137 z"
       id="path1250429"
       sodipodi:nodetypes="cccccsccccc" />
    <g
       id="g1250437"
       transform="translate(13.30523,-10.220483)">
      <path
         style="opacity:0.554979;fill:url(#linearGradient1250607);fill-opacity:1;stroke:#000000;stroke-width:0.264583px;stroke-linecap:butt;stroke-linejoin:miter;stroke-opacity:1"
         d="m 84.265161,140.25477 c 1.556386,-2.22298 3.078149,-1.23187 3.233907,-1.37205 0.252084,-0.22686 -0.38744,-0.95887 -0.468308,-1.17162 -0.218007,-0.57357 -1.13144,-0.54172 -1.58954,-0.41869 -1.259436,0.33822 -1.642156,1.6244 -1.176059,2.96236 z"
         id="path1250431"
         sodipodi:nodetypes="csssc" />
      <circle
         style="fill:#ffffff;fill-opacity:1;stroke-width:0.578698;filter:url(#filter148370)"
         id="circle1250433"
         cx="86.377289"
         cy="138.24713"
         r="0.40000001" />
      <circle
         style="fill:#ffffff;fill-opacity:1;stroke-width:0.553341;filter:url(#filter148374)"
         id="circle1250435"
         cx="85.720085"
         cy="138.50435"
         r="0.2" />
    </g>
    <path
       style="fill:#ffffff;stroke:none;stroke-width:0.264583px;stroke-linecap:butt;stroke-linejoin:miter;stroke-opacity:1"
       d="m 92.24787,138.99292 c 0.0477,0.45111 0.5144,0.56941 0.83922,0.65439 0.28402,0.0513 1.00578,0.2002 1.21751,-0.54107 0.26116,-0.60815 0.29222,-1.26889 0.15561,-1.40142 -0.0554,-0.20735 -0.43725,-0.003 -0.76003,-0.001 -0.56933,-0.0291 -0.86088,-0.21761 -1.24115,-0.27304 -0.18173,0.52412 -0.25282,0.98743 -0.21116,1.56238 z"
       id="path1250439"
       sodipodi:nodetypes="cccccccc" />
    <path
       style="fill:#ffffff;stroke:none;stroke-width:0.264583px;stroke-linecap:butt;stroke-linejoin:miter;stroke-opacity:1"
       d="m 95.16103,139.20389 c 0.20252,0.40592 0.68109,0.35349 1.01512,0.31947 0.28403,-0.0513 1.01227,-0.16428 0.95131,-0.93279 0.0319,-0.66108 -0.17012,-1.29093 -0.34446,-1.36731 -0.12439,-0.17488 -0.41076,0.14991 -0.71244,0.26472 -0.54352,0.17195 -0.88262,0.0973 -1.25824,0.17838 0.0131,0.55458 0.10856,1.01348 0.34872,1.53753 z"
       id="path1250441"
       sodipodi:nodetypes="cccccccc" />
    <path
       style="fill:none;stroke:none;stroke-width:0.264583px;stroke-linecap:butt;stroke-linejoin:miter;stroke-opacity:1"
       d="m 109.28284,123.79097 c -0.58872,-0.0505 -1.21688,-0.30431 -1.85209,-0.19844 -0.0882,0.022 -0.17639,0.0441 -0.26458,0.0661 -0.022,0.022 -0.0366,0.0563 -0.0662,0.0661 -0.0837,0.0279 -0.17902,-0.0214 -0.26458,0 -0.32834,0.0821 -0.92766,0.4969 -1.25677,0.66146 -0.01,0.005 -0.37488,0.39691 -0.46302,0.46302 -0.0199,0.0149 -0.36821,0.22157 -0.39688,0.26458 -0.0245,0.0367 0.0245,0.0956 0,0.13229 -0.0273,0.041 -0.10494,0.0251 -0.13229,0.0662 -0.0245,0.0367 0.0245,0.0956 0,0.13229 -0.0298,0.0446 -0.20622,0.17704 -0.26458,0.26459 -0.0908,0.1362 -0.40897,0.76386 -0.46302,0.92604 -0.0358,0.10733 -0.0189,0.30247 -0.0661,0.39687 -0.01,0.0197 -0.0563,-0.0197 -0.0661,0 -0.0697,0.13934 0.0295,0.44778 0,0.59531 -0.006,0.0306 -0.0522,0.0383 -0.0661,0.0661 -0.0764,0.15276 -0.0336,1.94987 0,2.05052 0.0523,0.15687 0.0925,0.30389 0.13229,0.46302 0.036,0.14407 -0.0467,0.323 0,0.46302 0.35461,1.06384 0.49076,2.44098 0.26458,3.57188 -0.0257,0.12861 0.0343,0.34297 0,0.46302 0.0735,0.17907 -0.16358,0.16 -0.19844,0.26458 -0.0408,0.12236 -0.0158,0.27106 -0.0662,0.39688 -0.14795,0.36988 -0.31934,0.633 -0.46302,0.99218 -0.0338,0.0844 -0.0157,0.18895 -0.0661,0.26459 -0.0519,0.0778 -0.1566,0.11477 -0.19843,0.19844 -0.1136,0.22719 -0.2876,0.45094 -0.46303,0.66145 -0.19849,0.2382 -0.31065,0.53981 -0.46302,0.79375 -0.11065,0.18442 -0.32552,0.25939 -0.46302,0.39688 -0.055,0.055 -0.11761,0.2499 -0.19843,0.33073 -0.14715,0.14715 -0.35965,0.26973 -0.52917,0.39687 -0.30688,-0.0566 -0.0761,0.14223 -0.13229,0.19844 -0.20012,0.20012 -0.53628,0.40043 -0.79375,0.52917 -0.14891,0.0745 -0.32362,0.12873 -0.46302,0.19843 -0.17848,0.0892 -0.3304,0.26448 -0.52917,0.33073 -0.37577,0.12526 -0.74667,0.22279 -1.12448,0.33073 -0.03,0.009 -0.0359,0.0586 -0.0661,0.0661 -0.0642,0.016 -0.13358,-0.013 -0.19844,0 -0.0483,0.01 -0.0882,0.0441 -0.13229,0.0661 -0.0662,0.022 -0.12966,0.0547 -0.19844,0.0662 -0.2363,0.0394 -0.49136,0.0985 -0.7276,0.13229 -0.245,0.035 -0.31389,-0.006 -0.52917,0.0661 -0.26812,0.0894 -0.77395,0 -1.05833,0 -0.15366,0 -1.56423,0.0233 -1.5875,0 -0.0156,-0.0156 0.0156,-0.0506 0,-0.0661 -0.0468,-0.0468 -0.13358,0.013 -0.19844,0 -0.22615,-0.0452 -0.42826,-0.17252 -0.66146,-0.19844 -0.10957,-0.0122 -0.22198,0.0181 -0.33073,0 -0.0308,-0.005 -0.0362,-0.0576 -0.0661,-0.0661 -0.67582,-0.19309 -1.66678,-0.19318 -2.3151,0.0661 -0.008,0.003 -0.45124,0.0544 -0.46302,0.0662 -0.0312,0.0312 0.0312,0.10111 0,0.13229 -0.0156,0.0156 -0.0506,-0.0156 -0.0661,0 -0.10946,0.10946 -0.17761,0.55365 -0.26458,0.72761 -0.056,0.11196 -0.0284,0.9165 0,1.05833 0.11138,0.55693 0.001,0.002 0.13229,0.26458 0.0593,0.11863 0.0502,0.26012 0.13229,0.39688 0.10762,0.17937 0.34367,0.34367 0.46302,0.46302 0.0156,0.0156 -0.0156,0.0505 0,0.0661 0.41832,0.41832 1.00439,0.66756 1.52135,0.92605 0.0592,0.0296 0.13569,-0.0209 0.19844,0 0.0754,0.0251 0.12302,0.10715 0.19844,0.13229 0.10458,0.0349 0.22134,-0.0137 0.33073,0 0.27041,0.0338 0.52691,0.14507 0.79375,0.19844 0.1272,0.0254 0.26967,-0.0255 0.39687,0 0.51523,0.10304 -0.20876,0.0503 0.52917,0.13229 0.13148,0.0146 0.26967,-0.0363 0.39687,0 0.11417,0.0326 0.21554,0.10349 0.33073,0.13229 0.30536,0.0763 1.66537,0.0319 1.98438,0 0.33754,-0.0338 0.66328,-0.14362 0.99219,-0.19844 0.2698,-0.045 0.52031,-0.0115 0.79375,-0.0661 0.37546,-0.0751 0.80729,0.0319 1.19062,0 0.15537,-0.0129 0.30765,-0.0532 0.46302,-0.0661 0.45566,-0.038 0.93705,0.0646 1.38906,0 0.28487,-0.0407 0.57386,-0.10369 0.8599,-0.13229 0.81756,-0.0818 -0.0461,0.11506 0.8599,-0.0661 0.26165,-0.0523 0.53189,-0.0799 0.79375,-0.13229 0.31619,-0.0632 0.61769,-0.26906 0.92604,-0.33073 0.30927,-0.0619 0.0923,0.0861 0.39687,-0.0661 0.25355,-0.12678 0.40327,-0.33393 0.66146,-0.46303 0.0394,-0.0197 0.0905,0.0139 0.13229,0 0.11117,-0.037 0.92152,-0.65693 0.99219,-0.7276 0.43207,-0.43207 -0.3963,0.2112 0.19844,-0.26458 0.25235,-0.20189 0.5654,-0.36697 0.79375,-0.59532 0.0562,-0.0562 0.0761,-0.14222 0.13229,-0.19843 0.0943,-0.0943 0.31834,-0.15987 0.39687,-0.26459 0.0418,-0.0558 0.0169,-0.14913 0.0662,-0.19843 0.93622,-0.93622 -0.36293,0.66041 0.46303,-0.33073 0.29297,-0.35158 0.57758,-0.70544 0.85989,-1.05834 0.11687,-0.14609 0.2931,-0.2412 0.39688,-0.39687 0.0387,-0.058 0.0243,-0.14266 0.0661,-0.19844 0.0296,-0.0394 0.0974,-0.0313 0.13229,-0.0661 0.0697,-0.0697 0.0626,-0.19486 0.13229,-0.26459 0.0349,-0.0349 0.0974,-0.0313 0.13229,-0.0661 0.10847,-0.10847 0.13439,-0.33493 0.19844,-0.46302 0.0785,-0.15704 0.28569,-0.28286 0.33073,-0.46303 0.0107,-0.0428 -0.0245,-0.0956 0,-0.13229 0.0274,-0.041 0.10149,-0.0277 0.13229,-0.0661 0.0804,-0.10047 0.41119,-0.60667 0.46302,-0.72761 0.0358,-0.0836 0.021,-0.18565 0.0661,-0.26458 0.0464,-0.0812 0.14231,-0.1236 0.19844,-0.19844 0.13569,-0.18092 0.19306,-0.57917 0.26458,-0.79375 0.17872,-0.53616 0.42259,-1.06933 0.59532,-1.5875 0.0515,-0.15463 0.0159,-0.37852 0.0662,-0.52916 0.11674,-0.35023 0.33596,-0.70896 0.46301,-1.05834 0.17197,-0.47293 0.24983,-0.96981 0.33073,-1.45521 0.008,-0.0486 0.0441,-0.0882 0.0661,-0.13229 0.022,-0.0661 0.0563,-0.12941 0.0661,-0.19844 0.0598,-0.41847 0.17815,-0.75843 0.26458,-1.19062 0.061,-0.30508 0.0486,-1.75873 0,-2.05052 -0.0917,-0.55007 -0.0181,-0.0544 -0.13229,-0.39688 -0.0391,-0.1174 0.0244,-0.27488 0,-0.39687 -0.0402,-0.20088 -0.13527,-0.33966 -0.19843,-0.52917 -0.0125,-0.0374 0.0266,-0.17187 0,-0.19844 -0.0349,-0.0349 -0.10495,-0.0251 -0.1323,-0.0661 -0.064,-0.096 -0.0554,-0.34771 -0.13229,-0.46302 -0.0122,-0.0183 -0.0563,0.0197 -0.0661,0 -0.0197,-0.0394 0.0164,-0.0914 0,-0.13229 -0.0669,-0.16714 -0.19663,-0.19481 -0.26458,-0.33073 -0.11121,-0.22242 -0.18724,-0.51237 -0.33073,-0.72761 -0.074,-0.11108 -0.20385,-0.20926 -0.26458,-0.33073 -0.0515,-0.10301 -0.10651,-0.30494 -0.19844,-0.39687 -0.0156,-0.0156 -0.0506,0.0156 -0.0661,0 -0.0156,-0.0156 0,-0.0441 0,-0.0662 -0.022,-0.0441 -0.0313,-0.0974 -0.0661,-0.13229 -0.0312,-0.0312 -0.0928,0.0197 -0.13229,0 -0.19138,-0.0957 -0.0563,-0.0629 -0.26459,-0.13229 -0.0468,-0.0156 -0.0882,-0.0441 -0.13229,-0.0661 -0.0441,-0.0441 -0.0744,-0.10913 -0.13229,-0.13229 -0.0614,-0.0245 -0.13358,0.013 -0.19844,0 -0.26618,-0.0532 -0.0304,-0.0483 -0.19843,-0.13229 -0.11725,-0.0586 -1.56042,-0.0319 -1.7198,0 -0.98674,0.19735 0.69852,-0.0944 -0.66145,0.13229"
       id="path1250443" />
    <path
       style="opacity:0.732899;mix-blend-mode:normal;fill:#ac9393;stroke:none;stroke-width:0.264583px;stroke-linecap:butt;stroke-linejoin:miter;stroke-opacity:1;filter:url(#filter46307)"
       d="m 89.75653,132.73576 c -0.42982,-0.76735 -0.69465,0.66147 -1.10747,1.07808 0.01,0.52925 -1.4073,-0.55848 -1.69473,0.96682 0.10944,0.0438 0.48344,0.83873 0.61732,0.88065 1.14323,0.35797 1.78255,0.13151 1.94472,-0.16737 0.82597,-1.52235 0.4988,-1.96227 0.24016,-2.75818"
       id="path1250445"
       sodipodi:nodetypes="cccssc" />
    <path
       style="fill:#808080;stroke:none;stroke-width:0.264583px;stroke-linecap:butt;stroke-linejoin:miter;stroke-opacity:1"
       d="m 88.50727,129.77858 c -0.39336,-0.04 -0.66434,-0.45796 -1.04198,-0.55237 -0.23215,-0.058 -0.56382,-0.0847 -0.79796,-0.0479 l -0.63143,0.0992 c -0.0385,0.006 -0.0995,-0.0349 -0.11693,0 -0.007,0.0144 -0.0461,0.17193 -0.0234,0.18709 1.03959,-0.37639 1.50122,-0.0601 2.54909,0.4444 0.0197,-0.01 0.0271,-0.0369 0.0468,-0.0468 0.007,-0.003 0.0219,0.008 0.0234,0 0.005,-0.0275 -0.005,-0.0557 -0.007,-0.0836 z"
       id="path1250447"
       sodipodi:nodetypes="scssscccccs" />
    <path
       style="fill:#666666;stroke:none;stroke-width:0.264583px;stroke-linecap:butt;stroke-linejoin:miter;stroke-opacity:1"
       d="m 91.13412,112.89566 c -9.57214,4.02669 -6.28438,10.82746 0.65481,7.37833 9.34579,-0.93532 13.99351,0.15615 17.4427,2.54599 5.74305,4.52445 8.52903,1.06218 5.26826,-2.28386 -6.15662,-7.5849 -16.8399,-9.54532 -23.36577,-7.64046 z"
       id="path1250449"
       sodipodi:nodetypes="ccccc" />
    <path
       style="opacity:0.820847;fill:#666666;stroke:none;stroke-width:0.264583px;stroke-linecap:butt;stroke-linejoin:miter;stroke-opacity:1;filter:url(#filter37294)"
       d="m 103.68524,109.0983 c -0.79141,0.58 -1.83743,1.80976 -2.21991,2.68039 -0.30136,0.68597 0.38662,1.1823 0.67787,0.76306 0.54599,-1.18282 1.74359,-2.22966 2.87323,-2.64166 1.84787,-0.20423 0.92599,-0.92517 0.57049,-1.26914 -0.45221,-0.32823 -0.6736,-0.15441 -1.90168,0.46735 z"
       id="path1250451"
       sodipodi:nodetypes="cscccc" />
    <path
       style="fill:#4d4d4d;stroke:none;stroke-width:0.264583px;stroke-linecap:butt;stroke-linejoin:miter;stroke-opacity:1;filter:url(#filter78537)"
       d="m 89.90211,118.16857 c -0.53197,0.0414 -1.86862,0.28113 -1.86862,0.28113 -1.04826,-0.18738 -1.30853,0.48025 -1.32292,0.99214 0.14615,2.42567 3.65617,0.74003 4.96093,0.19843 2.54103,-0.34866 6.6369,-0.6488 8.6155,-0.31424 3.24417,0.4038 5.27536,1.21744 7.88789,2.52988 1.56561,1.16705 4.09532,3.09956 6.3996,2.76159 1.16813,0.0834 1.74295,-1.93234 0.5788,-2.94349 -0.24979,-0.46388 -1.22347,-1.60654 -1.58751,-2.00091 -1.08113,-1.41795 -2.5614,-2.39187 -3.83645,-3.29076 -1.53766,-1.06378 -2.9613,-1.60556 -4.5806,-2.21588 -0.55744,-0.30969 -1.17772,-0.41285 -1.78593,-0.59531 -0.10054,-0.0302 -0.49063,-0.12813 -0.52917,-0.0992 -0.12534,0.094 -0.16536,0.1533 -0.16536,0.29765 0,0.0772 -0.0127,0.15539 0,0.23151 0.0467,0.28026 0.4375,0.59568 0.69453,0.69453 0.0848,0.0326 0.17946,0.0342 0.26458,0.0662 0.0158,0.006 0.41256,0.20777 0.46302,0.23151 0.27977,0.13166 0.57163,0.25132 0.82682,0.42995 0.39288,0.32914 0.89189,0.62111 1.55443,0.85988 0.0756,0.027 0.15878,0.0322 0.23151,0.0661 0.27757,0.12953 0.51761,0.33047 0.79375,0.46302 0.63842,0.19987 1.18471,0.56523 1.68672,0.95912 0.41947,0.33557 0.6574,0.83204 1.09141,1.15755 0.5269,0.49895 1.61773,1.04705 1.68672,1.95128 -0.0161,0.0161 -0.0579,0.0951 -0.0661,0.0992 -0.35722,0.0538 -0.71818,-0.13229 -1.05833,-0.13229 -1.92331,-0.74447 -3.01076,-1.12541 -3.95222,-1.5048 -2.46782,-0.58464 -4.38737,-1.40132 -6.69726,-1.60407 -1.83371,0.0309 -3.82529,-0.0872 -5.49011,-0.0331 -0.0206,7.9e-4 -0.70695,0.0653 -0.7276,0.0661"
       id="path1250453"
       sodipodi:nodetypes="cccccccccccccscscsccccccccccccc" />
    <ellipse
       style="opacity:0.358306;fill:#ffffff;stroke:none;stroke-width:0.264583;filter:url(#filter17752)"
       id="ellipse1250455"
       cx="76.799904"
       cy="134.98447"
       rx="3.6482289"
       ry="3.5546846"
       transform="matrix(0.6865164,0,0,0.63288816,33.552,47.749277)" />
    <ellipse
       style="opacity:0.70684;fill:#ffffff;stroke:none;stroke-width:0.264583;filter:url(#filter18742)"
       id="ellipse1250457"
       cx="95.624245"
       cy="115.92405"
       rx="2.8998742"
       ry="0.60803819" />
    <ellipse
       style="opacity:0.309446;fill:#ffffff;stroke:none;stroke-width:0.264999;stroke-miterlimit:4;stroke-dasharray:0, 0.264999, 0.53, 0.794999, 1.06, 1.325, 1.59, 1.855, 2.12, 2.385, 2.64999, 2.91499, 3.18, 3.44501, 3.70999;stroke-dashoffset:0;filter:url(#filter21047)"
       id="ellipse1250459"
       cx="95.717781"
       cy="143.19223"
       rx="2.5724692"
       ry="1.3096207" />
    <path
       style="opacity:0.615635;mix-blend-mode:normal;fill:#c8b7b7;stroke-width:0.264583px;filter:url(#filter29987)"
       d="m 82.87883,134.09503 c -0.83623,-2.20636 -1.68214,-0.11332 -0.83266,2.26677 2.64972,5.0368 4.91118,6.73026 7.89345,8.20058 0.48302,-0.60543 -0.2929,-1.09213 -3.16256,-3.5618 -0.90969,-0.78288 -3.57164,-4.85354 -1.66879,-3.3327 0.72401,0.57866 2.19194,0.39037 3.09439,-0.007 0.98228,-0.43258 1.36805,-1.1086 1.28926,-1.20167 -2.50195,0.79601 -3.11122,0.50718 -4.7421,-0.1185 0,0 -1.8278,-1.33788 -1.87099,-2.24562 z"
       id="path1250461"
       sodipodi:nodetypes="cccssscsc" />
    <path
       style="opacity:0.416938;fill:#ffffff;stroke-width:0.264583px;filter:url(#filter32418)"
       d="m 85.85683,122.74935 c -1.04108,0.71821 -2.34158,2.81423 -2.45444,5.33005 0.28927,3.14286 1.12876,-2.64753 4.7614,-4.09071 0.0143,-1.62079 -1.18321,-2.01106 -2.30696,-1.23934 z"
       id="path1250463"
       sodipodi:nodetypes="cccc" />
    <ellipse
       style="opacity:0.86645;fill:#ffffff;stroke:none;stroke-width:0.264999;stroke-miterlimit:4;stroke-dasharray:0, 0.264999, 0.53, 0.794999, 1.06, 1.325, 1.59, 1.855, 2.12, 2.385, 2.64999, 2.91499, 3.18, 3.44501, 3.70999;stroke-dashoffset:0;filter:url(#filter34904)"
       id="ellipse1250465"
       cx="94.648064"
       cy="142.67563"
       rx="0.74414062"
       ry="0.46302083" />
    <path
       style="fill:#e6e6e6;stroke:none;stroke-width:0.264583px;stroke-linecap:butt;stroke-linejoin:miter;stroke-opacity:1;filter:url(#filter39794)"
       d="m 100.00588,111.70282 c 0.62336,-2.52542 2.22332,-4.3846 5.10977,-3.62149 l -1.2237,-0.49609 c -2.10295,-0.64005 -3.81425,1.67157 -4.15065,3.53882 -0.20553,0.80984 -0.22916,0.56837 0.26458,0.57876 z"
       id="path1250467"
       sodipodi:nodetypes="ccccc" />
    <path
       style="opacity:0.805;fill:#c8b7b7;stroke:none;stroke-width:0.264583px;stroke-linecap:butt;stroke-linejoin:miter;stroke-opacity:1;filter:url(#filter43469)"
       d="m 97.96623,126.39169 c -0.71857,0.29326 -1.23594,1.16003 -1.31519,1.81894 -0.12361,1.02777 0.27906,2.19492 0.27906,2.19492 0.64953,-0.0976 0.6558,0.19786 0.54343,-0.13106 -0.21847,-0.63949 -0.70927,-2.00559 0.58624,-3.14884 l 1.3508,-0.40773 c 0.1915,-0.38881 -0.7803,-0.72584 -1.44434,-0.32623 z"
       id="path1250469"
       sodipodi:nodetypes="cscsccc" />
    <path
       style="opacity:0.267;fill:#ffffff;stroke:none;stroke-width:0.264583px;stroke-linecap:butt;stroke-linejoin:miter;stroke-opacity:1;filter:url(#filter46084)"
       d="m 86.77672,138.39266 c 0.1567,1.54174 2.72081,4.54884 4.59713,4.51446 l 0.52917,-0.56225 c -2.11434,-0.83005 -3.80007,-2.49805 -4.08451,-4.11757 z"
       id="path1250471"
       sodipodi:nodetypes="ccccc" />
    <ellipse
       style="opacity:0.726384;mix-blend-mode:normal;fill:#ffffff;stroke:none;stroke-width:0.264999;stroke-miterlimit:4;stroke-dasharray:0, 0.264999, 0.53, 0.794999, 1.06, 1.325, 1.59, 1.855, 2.12, 2.385, 2.64999, 2.91499, 3.18, 3.44501, 3.70999;stroke-dashoffset:0;filter:url(#filter49819)"
       id="ellipse1250473"
       cx="74.912018"
       cy="143.42159"
       rx="0.43181077"
       ry="0.61273783"
       transform="matrix(0.91455109,0,0,0.63341507,19.6389,42.096696)" />
    <path
       style="opacity:0.781759;fill:#916f6f;stroke:none;stroke-width:0.264583px;stroke-linecap:butt;stroke-linejoin:miter;stroke-opacity:1;filter:url(#filter55256)"
       d="m 112.55706,126.9825 c 0.1743,2.13785 0.4215,4.8045 -0.11576,6.77995 -0.96046,7.32708 2.37933,-1.27709 1.00322,-6.80009 -0.25471,-1.46903 -1.20755,-2.44526 -0.88746,0.0201 z"
       id="path1250475"
       sodipodi:nodetypes="cccc" />
    <ellipse
       style="opacity:0.348534;fill:#ac9393;stroke:none;stroke-width:0.264999;stroke-miterlimit:4;stroke-dasharray:0, 0.264999, 0.53, 0.794999, 1.06, 1.325, 1.59, 1.855, 2.12, 2.385, 2.64999, 2.91499, 3.18, 3.44501, 3.70999;stroke-dashoffset:0;filter:url(#filter57244)"
       id="ellipse1250477"
       cx="81.609184"
       cy="143.82651"
       rx="3.3220716"
       ry="3.3479698"
       transform="matrix(1.2628615,0,0,0.93969491,-8.11361,-1.547012)" />
    <ellipse
       style="opacity:0.267101;mix-blend-mode:normal;fill:#ffffff;stroke:none;stroke-width:0.264999;stroke-miterlimit:4;stroke-dasharray:0, 0.264999, 0.53, 0.794999, 1.06, 1.325, 1.59, 1.855, 2.12, 2.385, 2.64999, 2.91499, 3.18, 3.44501, 3.70999;stroke-dashoffset:0;filter:url(#filter60384)"
       id="ellipse1250479"
       cx="76.846672"
       cy="140.41005"
       rx="0.74835467"
       ry="0.7951268"
       transform="matrix(1.2012025,0,0,0.5449577,-2.1799,53.274467)" />
    <path
       style="fill:#ac9393;stroke:none;stroke-width:0.0282506px;stroke-linecap:butt;stroke-linejoin:miter;stroke-opacity:1"
       d="m 117.70148,139.4753 c -0.9912,-0.89809 -2.28661,-0.39177 -2.79625,0.0914 -0.42618,0.64379 -0.26287,1.00851 -0.18015,1.22789 0.52724,0.21825 1.26596,-1.40017 2.9764,-1.31932 z"
       id="path1250485"
       sodipodi:nodetypes="cccc" />
    <circle
       style="opacity:0.459283;fill:#6c5353;stroke:none;stroke-width:0.129502;stroke-miterlimit:4;stroke-dasharray:0, 0.129502, 0.259006, 0.388509, 0.518012, 0.647515, 0.777017, 0.906519, 1.03603, 1.16553, 1.29502, 1.42453, 1.55404, 1.68354, 1.81304;stroke-dashoffset:0;stroke-opacity:1;filter:url(#filter87877)"
       id="circle1250489"
       cx="88.833244"
       cy="141.73259"
       r="0.2"
       transform="matrix(1.3838611,0,0,1.3657604,-20.81706,-62.225678)" />
    <path
       style="opacity:0.521173;fill:#ac9393;stroke:none;stroke-width:0.264583px;stroke-linecap:butt;stroke-linejoin:miter;stroke-opacity:1;filter:url(#filter94842)"
       d="m 98.4833,139.23636 c 0.49465,0.0303 0.0492,0.52259 1.27049,-0.50111 2.6699,-2.96142 2.3286,-3.91736 3.08479,-5.71968 l -0.16867,-0.95041 c -0.14148,1.60611 -0.51593,2.21746 -1.10806,3.77542 -0.17769,0.46872 -0.63312,1.56805 -3.07855,3.39578 z"
       id="path1250491"
       sodipodi:nodetypes="cccccc" />
    <path
       style="fill:#6c5353;stroke:none;stroke-width:0.0922375px;stroke-linecap:butt;stroke-linejoin:miter;stroke-opacity:1"
       d="m 117.74517,141.32019 -2.36148,0.0213 c -0.63423,-0.025 -0.97703,0.0304 -1.86539,0.19658 -1.18752,0.29225 -2.77977,0.84335 -2.78025,1.66665 0.59534,-1.20232 6.17631,-1.6721 7.00715,-1.88452 z"
       id="path1250505"
       sodipodi:nodetypes="ccccc"
       inkscape:transform-center-x="0.12227231"
       inkscape:transform-center-y="0.40485757" />
    <path
       style="fill:#6c5353;stroke:none;stroke-width:0.0922375px;stroke-linecap:butt;stroke-linejoin:miter;stroke-opacity:1"
       d="m 119.58406,140.47743 -2.35931,-0.10353 c -0.63202,-0.0585 -0.97727,-0.0213 -1.87318,0.0977 -1.2013,0.22908 -2.82043,0.69527 -2.86443,1.51739 0.65805,-1.16918 6.25604,-1.34337 7.09695,-1.51158 z"
       id="path1250513"
       sodipodi:nodetypes="ccccc"
       inkscape:transform-center-x="0.14349231"
       inkscape:transform-center-y="0.33243214" />
    <path
       style="opacity:0.619;fill:#ac9393;stroke:none;stroke-width:0.264583px;stroke-linecap:butt;stroke-linejoin:miter;stroke-opacity:1;filter:url(#filter107849)"
       d="m 96.84098,129.99189 -0.13355,-0.61993 -0.0541,-0.25108 c 0.18911,-0.0567 0.35253,-0.20903 0.49017,-0.11202 l 0.28644,1.13215 c 0.0323,0.20391 -0.49984,0.47951 -0.58896,-0.14912 z"
       id="path1250523"
       sodipodi:nodetypes="cccccc" />
    <path
       style="fill:#000000;stroke:none;stroke-width:0.264583px;stroke-linecap:butt;stroke-linejoin:miter;stroke-opacity:1"
       d="m 114.04533,139.03753 c -0.0448,-0.0267 0.2679,-0.82912 1.34801,-1.12369 1.08172,-0.295 1.76354,0.23092 1.74127,0.27367 -0.0318,0.0611 -0.77884,-0.27336 -1.67493,-0.03 -0.89609,0.24341 -1.3552,0.91528 -1.41435,0.87997 z"
       id="path1250547"
       inkscape:path-effect="#path-effect1250603"
       inkscape:original-d="m 114.04533,139.03753 c 0.58341,-0.97731 2.08147,-1.37512 3.08927,-0.85002" />
    <ellipse
       style="opacity:0.769;fill:#4d4d4d;fill-opacity:1;stroke:none;stroke-width:0.165;stroke-linejoin:round;stroke-miterlimit:4;stroke-dasharray:none;stroke-dashoffset:0;stroke-opacity:1;paint-order:normal;filter:url(#filter194471)"
       id="ellipse1250555"
       cx="102.7336"
       cy="116.0176"
       rx="3.5546846"
       ry="2.7595577" />
  </g>
</svg>
